HIERARCHY
ROOT root
{
	OFFSET	0	13.1	24.9
	CHANNELS 6  Xposition Yposition Zposition Xrotation Yrotation Zrotation
	JOINT spine_1
	{
		OFFSET	0	9.99999	0
		CHANNELS 3  Xrotation Yrotation Zrotation
		JOINT spine_2
		{
			OFFSET	0	112	-10
			CHANNELS 3  Xrotation Yrotation Zrotation
			JOINT spine_3
			{
				OFFSET	0	206.5	19.3
				CHANNELS 3  Xrotation Yrotation Zrotation
				JOINT spine_4
				{
					OFFSET	0	110.4	14.6
					CHANNELS 3  Xrotation Yrotation Zrotation
					JOINT neck_1
					{
						OFFSET	0	71.8	-50.3
						CHANNELS 3  Xrotation Yrotation Zrotation
						JOINT neck_2
						{
							OFFSET	0	86.2	-25.8
							CHANNELS 3  Xrotation Yrotation Zrotation
							JOINT head_ee
							{
								OFFSET	0	179.8	-8.7
								CHANNELS 3  Xrotation Yrotation Zrotation
								End Site
								{
									OFFSET	1	0	0
								}
							}
						}
					}
					JOINT left_clavicle
					{
						OFFSET	-43.2	22.4	-70.8
						CHANNELS 3  Xrotation Yrotation Zrotation
						JOINT left_shoulder
						{
							OFFSET	-93.9	-5.79999	48.7
							CHANNELS 3  Xrotation Yrotation Zrotation
							JOINT left_elbow
							{
								OFFSET	-291.4	-30.8	15.2
								CHANNELS 3  Xrotation Yrotation Zrotation
								JOINT left_lowarm_twist
								{
									OFFSET	-110.7	-3.89999	13.6
									CHANNELS 3  Xrotation Yrotation Zrotation
									JOINT left_hand
									{
										OFFSET	-110.7	-3.89999	13.6
										CHANNELS 3  Xrotation Yrotation Zrotation
										JOINT left_ee
										{
											OFFSET	-80.8	-5.10001	12.1
											CHANNELS 3  Xrotation Yrotation Zrotation
											End Site
											{
												OFFSET	1	0	0
											}
										}
									}
								}
							}
						}
					}
					JOINT right_clavicle
					{
						OFFSET	43.2	22.4	-70.8
						CHANNELS 3  Xrotation Yrotation Zrotation
						JOINT right_shoulder
						{
							OFFSET	93.9	-5.79999	48.7
							CHANNELS 3  Xrotation Yrotation Zrotation
							JOINT right_elbow
							{
								OFFSET	291.4	-30.8	15.2
								CHANNELS 3  Xrotation Yrotation Zrotation
								JOINT right_lowarm_twist
								{
									OFFSET	110.7	-3.89999	13.6
									CHANNELS 3  Xrotation Yrotation Zrotation
									JOINT right_hand
									{
										OFFSET	110.7	-3.89999	13.6
										CHANNELS 3  Xrotation Yrotation Zrotation
										JOINT right_ee
										{
											OFFSET	80.8	-5.10001	12.1
											CHANNELS 3  Xrotation Yrotation Zrotation
											End Site
											{
												OFFSET	1	0	0
											}
										}
									}
								}
							}
						}
					}
				}
			}
		}
	}
	JOINT left_hip
	{
		OFFSET	-82.8	-127.5	0.300001
		CHANNELS 3  Xrotation Yrotation Zrotation
		JOINT left_knee
		{
			OFFSET	-28.2	-396.7	2.2
			CHANNELS 3  Xrotation Yrotation Zrotation
			JOINT left_ankle
			{
				OFFSET	-11.7	-411.3	35.4
				CHANNELS 3  Xrotation Yrotation Zrotation
				JOINT left_toes
				{
					OFFSET	0	-60	-88.6
					CHANNELS 3  Xrotation Yrotation Zrotation
					JOINT left_foot_ee
					{
						OFFSET	-22.5	-16.5	-42.2
						CHANNELS 3  Xrotation Yrotation Zrotation
						End Site
						{
							OFFSET	1	0	0
						}
					}
				}
			}
		}
	}
	JOINT right_hip
	{
		OFFSET	82.8	-127.5	0.300001
		CHANNELS 3  Xrotation Yrotation Zrotation
		JOINT right_knee
		{
			OFFSET	28.2	-396.7	2.2
			CHANNELS 3  Xrotation Yrotation Zrotation
			JOINT right_ankle
			{
				OFFSET	11.7	-411.3	35.4
				CHANNELS 3  Xrotation Yrotation Zrotation
				JOINT right_toes
				{
					OFFSET	0	-60	-88.6
					CHANNELS 3  Xrotation Yrotation Zrotation
					JOINT right_foot_ee
					{
						OFFSET	22.5	-16.5	-42.2
						CHANNELS 3  Xrotation Yrotation Zrotation
						End Site
						{
							OFFSET	1	0	0
						}
					}
				}
			}
		}
	}
}
MOTION
Frames: 14
Frame Time: 0.02
1214.85957387 746.363 -1676.86645761 5.04896275113 54.4584901208 0.542734785681 -2.13178 -0.0104358 -2.51053 -2.12829 0.149286 -2.50611 -2.13175 0.762669 -2.39197 -2.13953 0.375454 -2.48233 -4.04863 -6.16923 -3.96563 -3.99632 -8.24921 -5.05788 -0.0 0.0 -0.0 5.14202 5.02185 10.0531 -13.6596 -27.4821 67.4191 0.63701 -17.5135 0.098123 9.64805 0.238717 -1.20788 -1.70624 14.7963 -4.53725 -0.0 0.0 -0.0 3.10036 13.6529 -4.92651 4.30759 10.3217 -60.4872 1.05067 27.495 -0.257057 -48.4587 3.89226 -4.59987 -0.0136588 -6.39598 -2.57948 0.0 0.0 0.0 20.3273 -5.12941 -8.6171 -50.337 -1.25165 7.37921 -16.4187 13.0781 2.47088 32.8127 -0.0 -0.0 -0.0 0.0 -0.0 4.0971 24.8596 -9.48781 -4.83716 -0.168718 -0.722967 27.1502 -24.9321 3.76952 -39.7969 0.0 0.0 0.0 0.0 0.0 
1197.17552675 749.12 -1688.37859298 4.37333847336 56.3805940969 0.95342088428 -1.926 -0.300536 -2.46825 -1.92263 -0.142915 -2.48236 -1.91304 0.464053 -2.44281 -1.92136 0.0725578 -2.48541 -3.71226 -7.09994 -2.7213 -3.6626 -10.8693 -3.9039 -0.0 0.0 -0.0 5.03757 6.04104 9.87499 -14.7213 -27.2976 67.8397 0.539591 -14.9653 0.0708728 9.15203 0.231431 -1.14494 -1.7817 16.4312 -4.22786 -0.0 0.0 -0.0 3.04298 13.3676 -4.83061 5.40687 10.3339 -59.6575 1.20222 30.7745 -0.33087 -48.9864 3.95347 -4.62884 -0.503145 -6.12435 0.731304 0.0 0.0 0.0 22.7549 -4.91685 -9.20421 -47.9773 -1.05061 7.07659 -16.9211 10.6126 2.54139 32.2804 -0.0 -0.0 -0.0 0.0 -0.0 3.08829 24.624 -9.60731 -4.52565 -0.159699 -0.676012 31.6699 -25.5057 4.31092 -39.7819 0.0 0.0 0.0 0.0 0.0 
1197.24820954 749.12 -1688.43820093 4.37109954272 56.3611169662 0.956109839373 -1.926 -0.300536 -2.46825 -1.92263 -0.142915 -2.48236 -1.91304 0.464053 -2.44281 -1.92136 0.0725578 -2.48541 -3.71226 -7.09994 -2.7213 -3.6626 -10.8693 -3.9039 -0.0 0.0 -0.0 5.03757 6.04104 9.87499 -14.7213 -27.2976 67.8397 0.539591 -14.9653 0.0708728 9.15203 0.231431 -1.14494 -1.7817 16.4312 -4.22786 -0.0 0.0 -0.0 3.04298 13.3676 -4.83061 5.40687 10.3339 -59.6575 1.20222 30.7745 -0.33087 -48.9864 3.95347 -4.62884 -0.503145 -6.12435 0.731304 0.0 0.0 0.0 22.7549 -4.91685 -9.20421 -47.9773 -1.05061 7.07659 -16.9211 10.6126 2.54139 32.2804 -0.0 -0.0 -0.0 0.0 -0.0 3.08829 24.624 -9.60731 -4.52565 -0.159699 -0.676012 31.6699 -25.5057 4.31092 -39.7819 0.0 0.0 0.0 0.0 0.0 
1161.01704525 742.967 -1697.85624315 3.29323299083 60.4037668319 2.48107218772 -1.48721 -0.328953 -2.52361 -1.48368 -0.167756 -2.53941 -1.47306 0.434544 -2.50759 -1.48183 0.0331966 -2.54473 -2.96689 -7.62373 1.64959 -2.8487 -15.1387 0.624466 -0.0 0.0 -0.0 4.80907 7.69355 9.48263 -16.8941 -26.1066 67.9798 0.411725 -11.5279 0.0415601 10.2438 0.246747 -1.28355 -1.23783 20.9027 1.09808 -0.0 0.0 -0.0 3.10626 13.6189 -4.94194 7.02549 10.3854 -58.4069 1.44108 35.5197 -0.461588 -50.6688 4.15036 -4.71742 -2.31463 -6.63691 12.4219 0.0 0.0 0.0 27.8035 -4.66178 -7.90409 -40.8537 -0.521971 6.11736 -22.0081 11.9132 3.3154 32.6726 -0.0 -0.0 -0.0 0.0 -0.0 2.29566 25.0616 -11.3903 -4.5215 -0.159577 -0.675387 37.2233 -26.481 4.94011 -39.9583 0.0 0.0 0.0 0.0 0.0 
1142.7368234 740.796 -1699.58838265 -1.06021407311 61.23075829 6.41542411445 -1.0567 -0.180776 -2.56421 -1.05305 -0.0172975 -2.57052 -1.04965 0.569724 -2.50669 -1.05838 0.166827 -2.56516 -4.46539 -8.10726 1.87558 -4.37041 -16.2843 0.586763 -0.0 0.0 -0.0 4.98101 8.40087 9.79919 -18.3786 -25.6612 67.9126 0.302339 -8.51805 0.0225156 11.0138 0.255959 -1.38147 -0.636648 24.1609 5.96105 -0.0 0.0 -0.0 3.45322 14.3179 -5.61436 8.13352 10.0421 -57.1456 1.55199 37.5508 -0.527625 -50.8753 4.17471 -4.7279 -3.12772 -6.90978 17.7853 0.0 0.0 0.0 29.5797 -6.43992 -6.61698 -39.3207 -0.424119 5.90297 -21.8917 13.5359 3.30442 34.6982 -0.0 -0.0 -0.0 0.0 -0.0 1.61184 24.0288 -10.0684 4.18229 0.194682 0.61202 37.8307 -26.3762 4.99882 -40.1814 0.0 0.0 0.0 0.0 0.0 
1123.32621979 735.335 -1700.69253454 -3.49325395714 62.8306211294 8.16422896904 -0.837242 -0.115679 -2.50611 -0.833749 0.043975 -2.5084 -0.833463 0.606054 -2.43452 -0.84167 0.214087 -2.49963 -4.88386 -8.32722 3.31671 -4.75683 -17.7913 1.96887 -0.0 0.0 -0.0 4.86353 9.29726 9.59788 -19.6176 -25.3742 67.1945 0.280577 -7.91299 0.0194058 11.9073 0.264997 -1.49524 -0.286757 25.1769 8.35339 -0.0 0.0 -0.0 3.131 14.7505 -4.89422 8.85699 10.3818 -55.9689 1.6481 39.2257 -0.587314 -51.5051 4.24918 -4.7593 -3.74807 -5.7111 22.7849 0.0 0.0 0.0 32.0495 -8.18943 -5.80151 -36.6766 -0.268984 5.5274 -24.204 12.9705 3.65101 35.1421 -0.0 -0.0 -0.0 0.0 -0.0 0.970349 25.5017 -9.30184 4.63802 0.218588 0.677829 40.3139 -25.4841 5.21411 -39.434 0.0 0.0 0.0 0.0 0.0 
1108.00297239 734.939 -1701.14845616 -4.37061625952 63.5058823125 9.4861085214 -0.727683 -0.0483648 -2.5396 -0.724102 0.113282 -2.53753 -0.727057 0.675654 -2.44861 -0.735314 0.280593 -2.52452 -4.95047 -7.49939 3.20458 -4.84333 -16.1884 1.98472 -0.0 0.0 -0.0 4.89506 9.03114 9.65146 -20.7329 -24.9719 67.5652 0.301444 -8.4932 0.0223832 13.699 0.277772 -1.72373 0.466318 26.7779 13.2054 -0.0 0.0 -0.0 3.17593 15.7698 -4.89816 9.72401 11.8316 -55.7823 1.75733 41.0368 -0.657724 -51.6536 4.26679 -4.76658 -3.98326 -6.31014 24.1292 0.0 0.0 0.0 33.288 -9.20113 -5.93175 -29.6926 0.0557166 4.50571 -21.8914 16.2935 3.32181 31.6888 -0.0 -0.0 -0.0 0.0 -0.0 0.0928027 24.5418 -10.2458 6.54747 0.324436 0.951472 38.4731 -24.3657 4.9993 -36.2962 0.0 0.0 0.0 0.0 0.0 
1088.95804538 731.882 -1702.29316258 -5.48979743126 65.7489135551 10.8642871978 -0.581266 -0.0833341 -2.61044 -0.577478 0.0828861 -2.61045 -0.579152 0.655732 -2.52816 -0.587985 0.248368 -2.59994 -5.583 -7.49423 3.02374 -5.50018 -16.0632 1.70967 -0.0 0.0 -0.0 4.95 8.6187 9.74567 -21.3093 -24.9018 67.9651 0.231718 -6.54826 0.0132558 14.032 0.279358 -1.76622 0.500671 28.4503 13.9387 -0.0 0.0 -0.0 3.10544 15.9182 -4.73477 10.1809 12.6077 -55.4379 1.83431 42.2562 -0.708888 -51.1432 4.20635 -4.74135 -4.16549 -6.76987 25.1768 0.0 0.0 0.0 34.5132 -10.5629 -5.61908 -25.356 0.193749 3.85464 -24.0429 17.8765 3.66391 30.0076 -0.0 -0.0 -0.0 0.0 -0.0 1.01412 22.8127 -11.7253 3.44299 0.157018 0.50487 41.3926 -24.6307 5.28735 -32.7932 0.0 0.0 0.0 0.0 0.0 
1069.81709114 726.481 -1707.72837365 -7.03718261089 66.7391603041 11.8962113874 -0.517524 -0.139316 -2.47949 -0.514104 0.0186939 -2.48333 -0.512978 0.562234 -2.41896 -0.521101 0.173271 -2.47735 -6.49805 -7.59484 4.0493 -6.41386 -17.019 2.59415 -0.0 0.0 -0.0 4.89921 8.587 9.65482 -22.0421 -24.6327 67.5871 0.210298 -5.94749 0.0109247 15.5569 0.283467 -1.96095 1.009 29.11 17.0003 -0.0 0.0 -0.0 2.99215 16.5085 -4.4393 11.2336 12.6242 -55.1958 1.9791 44.4276 -0.808278 -51.2749 4.22192 -4.74791 -4.43772 -6.88177 27.1026 0.0 0.0 0.0 35.201 -11.3942 -5.26541 -21.5492 0.274013 3.27608 -21.9387 18.1719 3.34547 28.9234 -0.0 -0.0 -0.0 0.0 -0.0 -0.0644426 24.0676 -11.2766 4.07244 0.188998 0.596129 42.0083 -25.0113 5.35697 -30.2175 0.0 0.0 0.0 0.0 0.0 
1066.94578384 726.481 -1703.94755037 -7.24707746264 67.4469780664 12.124071633 -0.517524 -0.139316 -2.47949 -0.514104 0.0186939 -2.48333 -0.512978 0.562234 -2.41896 -0.521101 0.173271 -2.47735 -6.49805 -7.59484 4.0493 -6.41386 -17.019 2.59415 -0.0 0.0 -0.0 4.89921 8.587 9.65482 -22.0421 -24.6327 67.5871 0.210298 -5.94749 0.0109247 15.5569 0.283467 -1.96095 1.009 29.11 17.0003 -0.0 0.0 -0.0 2.99215 16.5085 -4.4393 11.2336 12.6242 -55.1958 1.9791 44.4276 -0.808278 -51.2749 4.22192 -4.74791 -4.43772 -6.88177 27.1026 0.0 0.0 0.0 35.201 -11.3942 -5.26541 -21.5492 0.274013 3.27608 -21.9387 18.1719 3.34547 28.9234 -0.0 -0.0 -0.0 0.0 -0.0 -0.0644426 24.0676 -11.2766 4.07244 0.188998 0.596129 42.0083 -25.0113 5.35697 -30.2175 0.0 0.0 0.0 0.0 0.0 
1048.90439191 724.209 -1705.04588947 -9.05580593164 68.7224619741 13.4648337695 -0.458132 -0.253415 -2.33298 -0.45511 -0.10449 -2.34437 -0.448999 0.408888 -2.31082 -0.456449 0.0389113 -2.34637 -7.57596 -7.48994 3.82646 -7.53467 -16.6743 2.22488 -0.0 0.0 -0.0 4.96898 8.25752 9.77641 -22.3734 -24.5424 67.4942 0.193081 -5.46367 0.00921306 16.3321 0.283568 -2.05996 1.24352 29.4793 18.4339 -0.0 0.0 -0.0 2.90666 16.661 -4.24284 11.4377 14.2828 -54.9186 2.01987 45.0116 -0.836971 -51.296 4.22442 -4.74896 -4.48694 -6.51681 27.6925 0.0 0.0 0.0 35.4091 -11.8118 -5.61503 -16.4913 0.320913 2.50168 -21.1583 19.0268 3.23434 27.9147 -0.0 -0.0 -0.0 0.0 -0.0 -0.290571 23.7456 -11.3697 3.67241 0.168557 0.538171 41.9912 -23.9374 5.3198 -28.4001 0.0 0.0 0.0 0.0 0.0 
1009.69977031 718.387 -1718.51054276 -9.69161116637 69.8410795859 13.442484182 -0.359305 -0.44933 -2.14305 -0.356804 -0.312084 -2.16729 -0.343273 0.163485 -2.18352 -0.34988 -0.183328 -2.18194 -8.32087 -7.29173 4.03739 -8.29786 -16.4558 2.36544 -0.0 0.0 -0.0 5.15904 8.26296 10.1171 -22.8594 -24.3363 67.6639 0.183931 -5.20621 0.00836222 17.1488 0.282226 -2.16426 1.53348 29.4869 20.0991 -0.0 0.0 -0.0 3.10985 16.4072 -4.69948 11.7149 14.0672 -54.5634 2.07537 45.7876 -0.876484 -51.1774 4.21039 -4.74306 -4.57998 -6.64187 28.3092 0.0 0.0 0.0 36.0837 -12.4838 -5.07501 -10.3051 0.285219 1.55366 -18.5192 19.7994 2.83527 27.1076 -0.0 -0.0 -0.0 0.0 -0.0 -1.11257 23.135 -11.3134 -1.96835 -0.0760265 -0.292493 41.79 -24.8559 5.33161 -26.4694 0.0 0.0 0.0 0.0 0.0 
1006.79535103 718.387 -1714.1279709 -10.019420201 70.5211061764 13.7909259018 -0.359305 -0.44933 -2.14305 -0.356804 -0.312084 -2.16729 -0.343273 0.163485 -2.18352 -0.34988 -0.183328 -2.18194 -8.32087 -7.29173 4.03739 -8.29786 -16.4558 2.36544 -0.0 0.0 -0.0 5.15904 8.26296 10.1171 -22.8594 -24.3363 67.6639 0.183931 -5.20621 0.00836222 17.1488 0.282226 -2.16426 1.53348 29.4869 20.0991 -0.0 0.0 -0.0 3.10985 16.4072 -4.69948 11.7149 14.0672 -54.5634 2.07537 45.7876 -0.876484 -51.1774 4.21039 -4.74306 -4.57998 -6.64187 28.3092 0.0 0.0 0.0 36.0837 -12.4838 -5.07501 -10.3051 0.285219 1.55366 -18.5192 19.7994 2.83527 27.1076 -0.0 -0.0 -0.0 0.0 -0.0 -1.11257 23.135 -11.3134 -1.96835 -0.0760265 -0.292493 41.79 -24.8559 5.33161 -26.4694 0.0 0.0 0.0 0.0 0.0 
1002.58030704 718.387 -1707.55622865 -10.5516912855 71.5295841864 14.3537588572 -0.359305 -0.44933 -2.14305 -0.356804 -0.312084 -2.16729 -0.343273 0.163485 -2.18352 -0.34988 -0.183328 -2.18194 -8.32087 -7.29173 4.03739 -8.29786 -16.4558 2.36544 -0.0 0.0 -0.0 5.15904 8.26296 10.1171 -22.8594 -24.3363 67.6639 0.183931 -5.20621 0.00836222 17.1488 0.282226 -2.16426 1.53348 29.4869 20.0991 -0.0 0.0 -0.0 3.10985 16.4072 -4.69948 11.7149 14.0672 -54.5634 2.07537 45.7876 -0.876484 -51.1774 4.21039 -4.74306 -4.57998 -6.64187 28.3092 0.0 0.0 0.0 36.0837 -12.4838 -5.07501 -10.3051 0.285219 1.55366 -18.5192 19.7994 2.83527 27.1076 -0.0 -0.0 -0.0 0.0 -0.0 -1.11257 23.135 -11.3134 -1.96835 -0.0760265 -0.292493 41.79 -24.8559 5.33161 -26.4694 0.0 0.0 0.0 0.0 0.0 
